HIERARCHY
ROOT hip
{
	OFFSET 0.000000 0.000000 0.000000 
	CHANNELS 6 Xposition Yposition Zposition Xrotation Zrotation Yrotation
	JOINT abdomen
	{
		OFFSET 0.000000 3.402643 0.000000 
		CHANNELS 3 Xrotation Zrotation Yrotation
		JOINT chest
		{
			OFFSET 0.000000 8.438565 -0.680529 
			CHANNELS 3 Xrotation Zrotation Yrotation
			JOINT neck
			{
				OFFSET 0.000000 10.207942 -0.272212 
				CHANNELS 3 Xrotation Zrotation Yrotation
				JOINT head
				{
					OFFSET 0.000000 3.130431 0.000000 
					CHANNELS 3 Xrotation Zrotation Yrotation
					End Site
					{
						OFFSET 0.000000 3.130435 0.000000 
					}
				}
			}
			JOINT lCollar
			{
				OFFSET 3.470700 6.669187 -0.816635 
				CHANNELS 3 Yrotation Zrotation Xrotation
				JOINT lShldr
				{
					OFFSET 3.198488 0.000000 0.000000 
					CHANNELS 3 Zrotation Yrotation Xrotation
					JOINT lForeArm
					{
						OFFSET 10.139888 0.000000 0.000000 
						CHANNELS 3 Yrotation Zrotation Xrotation
						JOINT lHand
						{
							OFFSET 8.370511 0.000000 0.000000 
							CHANNELS 3 Zrotation Yrotation Xrotation
							End Site
							{
								OFFSET 4.083176 0.000000 0.000000 
							}
						}
					}
				}
			}
			JOINT rCollar
			{
				OFFSET -3.470700 6.669187 -0.816635 
				CHANNELS 3 Yrotation Zrotation Xrotation
				JOINT rShldr
				{
					OFFSET -3.198488 0.000000 0.000000 
					CHANNELS 3 Zrotation Yrotation Xrotation
					JOINT rForeArm
					{
						OFFSET -10.139888 0.000000 0.000000 
						CHANNELS 3 Yrotation Zrotation Xrotation
						JOINT rHand
						{
							OFFSET -8.370511 0.000000 0.000000 
							CHANNELS 3 Zrotation Yrotation Xrotation
							End Site
							{
								OFFSET -4.083176 0.000000 0.000000 
							}
						}
					}
				}
			}
		}
	}
	JOINT lThigh
	{
		OFFSET 5.308129 -1.633274 1.361059 
		CHANNELS 3 Xrotation Zrotation Yrotation
		JOINT lShin
		{
			OFFSET -2.041588 -20.007561 0.000000 
			CHANNELS 3 Xrotation Zrotation Yrotation
			JOINT lFoot
			{
				OFFSET 0.000000 -19.190928 -1.224953 
				CHANNELS 3 Xrotation Yrotation Zrotation
				End Site
				{
					OFFSET 0.000000 -2.449906 4.627600 
				}
			}
		}
	}
	JOINT rThigh
	{
		OFFSET -5.308129 -1.633274 1.361059 
		CHANNELS 3 Xrotation Zrotation Yrotation
		JOINT rShin
		{
			OFFSET 2.041588 -20.007561 0.000000 
			CHANNELS 3 Xrotation Zrotation Yrotation
			JOINT rFoot
			{
				OFFSET 0.000000 -19.190928 -1.224953 
				CHANNELS 3 Xrotation Yrotation Zrotation
				End Site
				{
					OFFSET 0.000000 -2.449906 4.627600 
				}
			}
		}
	}
}
MOTION
Frames: 16
Frame Time: 0.016667
-0.919401 55.117371 93.510612 7.817420 -7.285910 -3.117260 -20.895800 4.233890 -0.475054 15.517200 0.739319 0.354734 42.509293 5.076275 -1.371389 -8.603520 0.000000 0.000000 2.000000 -2.000000 0.000000 85.968697 152.147003 -3.447350 48.730900 -0.305027 0.102815 5.294240 1.699110 -168.350006 -2.000000 2.000000 0.000000 -97.379204 -155.602005 1.292890 -51.064899 0.300767 0.106356 -177.317993 173.764999 -0.611748 -10.174003 4.923943 3.819175 42.183395 2.590350 2.898765 27.996998 -16.805666 8.164162 -13.778584 8.062961 4.918825 44.324795 -2.109475 -3.158869 29.669153 -2.798962 1.142501 
-0.909566 55.652706 94.929886 7.531460 -7.261710 -2.960340 -20.809999 4.314880 -0.509405 15.302100 0.884938 0.328784 42.436855 4.972540 -1.266953 -8.603520 0.000000 0.000000 2.000000 -2.000000 0.000000 85.990402 153.824997 -2.623210 46.748501 -0.308528 0.099634 5.256550 1.811920 -169.600006 -2.000000 2.000000 0.000000 -96.590500 -157.675995 -0.147237 -48.428200 0.305569 0.102290 -177.457001 173.699005 -1.869190 -11.631498 4.852726 4.104563 40.655785 2.569804 2.841475 24.024750 -15.409754 6.277210 -15.035951 7.967112 4.539300 42.414825 -2.111963 -3.087417 26.630999 -3.212864 1.113493 
-0.905121 56.034870 96.347488 7.233220 -7.082440 -2.850040 -20.674000 4.354990 -0.514485 15.116300 1.059660 0.319024 42.279427 4.901264 -1.251434 -8.603520 0.000000 0.000000 2.000000 -2.000000 0.000000 86.168098 155.404007 -1.633230 45.029701 -0.311472 0.096780 5.254690 1.812250 -169.658005 -2.000000 2.000000 0.000000 -96.113899 -159.591995 -0.959281 -46.143002 0.309575 0.098592 -177.503998 173.681000 -2.380370 -12.997849 4.583769 4.126552 38.558605 2.559785 2.759200 20.873602 -13.727382 4.792081 -16.460369 7.732573 4.411089 40.612358 -2.117514 -3.023426 24.183271 -3.349364 0.986211 
-0.907977 56.268013 97.764854 6.806710 -6.856100 -2.721800 -20.448200 4.335680 -0.509614 14.910800 1.224500 0.298907 42.170532 4.760918 -1.237940 -8.603520 0.000000 0.000000 2.000000 -2.000000 0.000000 86.472397 156.826996 -0.555686 43.623501 -0.313817 0.094380 5.293660 1.699230 -168.369003 -2.000000 2.000000 0.000000 -95.812698 -161.233002 -1.287360 -44.375401 0.312570 0.095623 -177.462997 173.699005 -1.928510 -14.071114 4.248307 3.904789 35.949299 2.559282 2.630727 18.475925 -11.929504 3.663825 -17.710579 7.411481 4.408331 38.562843 -2.133953 -2.919496 22.511230 -3.530983 0.894334 
-0.911959 56.360954 99.185265 6.263000 -6.649890 -2.584360 -20.211700 4.279860 -0.491478 14.637100 1.321050 0.273233 42.190453 4.591584 -1.213395 -8.603520 0.000000 0.000000 2.000000 -2.000000 0.000000 86.874001 157.947998 0.560243 42.607800 -0.315473 0.092611 5.364200 1.484300 -165.977005 -2.000000 2.000000 0.000000 -95.667198 -162.444000 -1.128170 -43.232800 0.314457 0.093655 -177.358002 173.746002 -0.975179 -15.043172 3.922282 3.431882 33.235691 2.615944 2.480104 16.585411 -10.120967 2.787299 -18.909298 7.083204 4.487214 36.591705 -2.153485 -2.832806 21.254051 -3.892483 0.902813 
-0.911352 56.317333 100.614540 5.700730 -6.491450 -2.502340 -19.974800 4.212300 -0.448823 14.353700 1.349480 0.263542 42.319885 4.433249 -1.175596 -8.603520 0.000000 0.000000 2.000000 -2.000000 0.000000 87.392502 158.755997 1.694980 42.002399 -0.316445 0.091542 5.434000 1.220840 -163.087006 -2.000000 2.000000 0.000000 -95.677498 -163.233002 -0.432879 -42.705502 0.315315 0.092734 -177.283997 173.783997 -0.296857 -15.887724 3.672568 2.799407 30.266613 2.642462 2.303135 15.165639 -8.382925 2.150358 -20.083776 6.802915 4.599944 34.580044 -2.174955 -2.726977 20.331259 -4.374079 0.950824 
-0.907977 56.134174 102.054825 5.218050 -6.389650 -2.516630 -19.727800 4.146880 -0.344659 14.158500 1.290740 0.294766 42.517998 4.345839 -1.188906 -8.603520 0.000000 0.000000 2.000000 -2.000000 0.000000 88.018204 159.367996 2.822930 41.738701 -0.316865 0.091074 5.488570 0.971822 -160.363998 -2.000000 2.000000 0.000000 -95.843903 -163.727997 0.818338 -42.715302 0.315299 0.092751 -177.270004 173.783997 -0.169593 -16.691025 3.525948 1.994863 27.098417 2.662801 2.105696 14.181694 -6.729242 1.683328 -21.275614 6.561235 4.710206 32.497147 -2.212238 -2.596364 19.571684 -4.851479 1.009428 
-0.904863 55.808212 103.511185 4.814350 -6.305980 -2.619890 -19.529301 4.075310 -0.200604 14.002500 1.173920 0.353445 42.620461 4.325595 -1.258981 -8.603520 0.000000 0.000000 2.000000 -2.000000 0.000000 88.692596 159.785995 3.888320 41.787498 -0.316788 0.091161 5.515620 0.796061 -158.440994 -2.000000 2.000000 0.000000 -96.137100 -163.891006 2.459370 -43.213299 0.314489 0.093621 -177.274002 173.783997 -0.198718 -17.692776 3.454265 1.059286 24.148764 2.710103 1.898669 13.484488 -5.185321 1.333089 -22.540022 6.347851 4.743440 30.461519 -2.259047 -2.465425 18.782423 -5.158518 1.035539 
-0.903939 55.336494 104.990891 4.489470 -6.230980 -2.793240 -19.379400 4.001080 -0.008835 13.905200 1.028190 0.436765 42.632656 4.347557 -1.426479 -8.603520 0.000000 0.000000 2.000000 -2.000000 0.000000 89.347198 159.998001 4.777470 42.129299 -0.316242 0.091767 5.529630 0.728577 -157.688995 -2.000000 2.000000 0.000000 -96.508400 -163.710999 4.255800 -44.219200 0.312831 0.095356 -177.244995 173.804001 0.066573 -18.628698 3.474094 0.055132 21.187313 2.730520 1.703701 13.147794 -3.838681 1.090560 -23.773884 6.135880 4.698194 28.270536 -2.275206 -2.337270 18.072350 -5.398240 0.986331 
-0.908958 54.717556 106.500725 4.194220 -6.165210 -3.000600 -19.249001 3.933050 0.199411 13.895700 0.863275 0.533966 42.671333 4.357134 -1.607701 -8.603520 0.000000 0.000000 2.000000 -2.000000 0.000000 89.933296 160.054993 5.392840 42.724998 -0.315284 0.092817 5.520800 0.776882 -158.255005 -2.000000 2.000000 0.000000 -96.928299 -163.246994 5.973420 -45.713299 0.310311 0.097878 -177.184006 173.834000 0.635992 -19.708738 3.552938 -1.153342 18.587788 2.782940 1.486827 13.129039 -2.622479 0.897488 -24.989185 5.977455 4.602889 26.163435 -2.323009 -2.204014 17.424536 -5.783051 1.044664 
-0.924334 53.951031 108.048416 3.869880 -6.138420 -3.217920 -19.098600 3.845670 0.384622 14.023000 0.698559 0.623126 42.835346 4.413666 -1.757648 -8.603520 0.000000 0.000000 2.000000 -2.000000 0.000000 90.411903 160.016006 5.705250 43.486801 -0.314042 0.094143 5.493310 0.932142 -159.876007 -2.000000 2.000000 0.000000 -97.338402 -162.608994 7.495310 -47.529701 0.307161 0.100855 -177.110992 173.865005 1.322970 -20.871059 3.695519 -2.765265 16.495865 2.883719 1.295524 13.595282 -1.456867 0.696886 -25.971781 5.901092 4.458282 23.906221 -2.363058 -2.030057 17.070845 -6.418148 1.187358 
-0.955835 53.037807 109.637207 3.418200 -6.160980 -3.376120 -18.909201 3.751890 0.552319 14.277100 0.553301 0.710603 43.090176 4.583212 -1.884648 -8.603520 0.000000 0.000000 2.000000 -2.000000 0.000000 90.792603 159.858994 5.743960 44.336399 -0.312636 0.095604 5.456510 1.120710 -162.003998 -2.000000 2.000000 0.000000 82.261299 -18.106800 -171.227005 -49.453602 0.303724 0.103898 -177.024994 173.906006 2.049830 -22.031378 3.853105 -4.945571 15.085704 3.058948 1.158433 14.433895 -0.278163 0.451205 -26.632963 5.903237 4.352060 21.587521 -2.399468 -1.854975 17.098146 -7.153437 1.433480 
-1.010441 51.978176 111.260605 2.779960 -6.203680 -3.494350 -18.671200 3.657600 0.691764 14.658000 0.466268 0.772142 43.460743 4.815802 -1.982952 -8.603520 0.000000 0.000000 2.000000 -2.000000 0.000000 91.104897 159.664001 5.548210 45.146900 -0.311274 0.096977 5.408100 1.311370 -164.044006 -2.000000 2.000000 0.000000 81.890297 -18.753901 -170.173996 -51.260201 0.300404 0.106648 -176.962997 173.938004 2.648380 -23.187304 3.979189 -7.211104 14.644351 3.324924 1.046740 15.133568 0.573977 0.194313 -27.006754 5.982089 4.289824 19.526449 -2.468268 -1.678305 17.726501 -7.847557 1.786437 
-1.094761 50.770687 112.905357 1.925610 -6.275780 -3.512230 -18.374800 3.550160 0.795911 15.087700 0.466616 0.814702 43.877781 5.024466 -2.050093 -8.603520 0.000000 0.000000 2.000000 -2.000000 0.000000 91.338997 159.490005 5.137660 45.801201 -0.310161 0.098072 5.375720 1.443600 -165.537994 -2.000000 2.000000 0.000000 81.568001 -19.234501 -169.257004 -52.803200 0.297502 0.108913 -176.929993 173.959000 2.972960 -24.248253 4.146937 -8.671841 15.220001 3.645507 1.010178 15.591520 0.636201 0.116772 -27.160130 6.154441 4.257656 18.077221 -2.572595 -1.523051 19.075415 -8.346149 2.269807 
-1.208186 49.410015 114.560097 0.805874 -6.444680 -3.430830 -18.059900 3.462510 0.841899 15.517400 0.515578 0.823680 44.271313 5.203877 -2.117376 -8.603520 0.000000 0.000000 2.000000 -2.000000 0.000000 91.543800 159.343994 4.609990 46.221100 -0.309440 0.098768 5.363220 1.504640 -166.192001 -2.000000 2.000000 0.000000 81.284698 -19.529499 -168.408005 -54.014198 0.295182 0.110636 -176.934006 173.959000 2.933090 -25.147415 4.524540 -8.687135 16.876419 3.911444 1.083155 16.220911 -0.161012 0.290849 -27.138336 6.463077 4.042435 17.731092 -2.692525 -1.457193 20.850016 -8.268756 2.670197 
-1.340330 47.879684 116.220459 -0.619513 -6.737890 -3.277420 -17.716400 3.418960 0.894716 15.849400 0.583961 0.840590 44.618153 5.373624 -2.176207 -8.603520 0.000000 0.000000 2.000000 -2.000000 0.000000 91.768204 159.218994 4.053070 46.357899 -0.309204 0.098993 5.364490 1.494280 -166.054993 -2.000000 2.000000 0.000000 81.040199 -19.677799 -167.608002 -54.834499 0.293590 0.111775 -176.964005 173.938004 2.638670 -25.917702 5.198278 -7.449853 19.755577 3.942211 1.289972 17.100893 -1.814998 0.901566 -26.979574 6.918504 3.231314 18.884127 -2.789235 -1.512580 22.597687 -7.465522 2.794950 
